<?xml version="1.0" encoding="utf-8"?>
<!-- Generator: Adobe Illustrator 21.0.2, SVG Export Plug-In . SVG Version: 6.00 Build 0)  -->
<svg version="1.1" id="Layer_1" xmlns="http://www.w3.org/2000/svg" xmlns:xlink="http://www.w3.org/1999/xlink" x="0px" y="0px"
	 viewBox="0 0 50 50" style="enable-background:new 0 0 50 50;" xml:space="preserve">
<style type="text/css">
	.st0{fill-rule:evenodd;clip-rule:evenodd;}
	.st1{fill-rule:evenodd;clip-rule:evenodd;fill:#FFFFFF;}
</style>
<path class="st0" d="M363.7,207l4.8,4.8c0.4,0.4,0.4,1.1,0,1.5l-4.8,4.8c-0.4,0.5-1,0.5-1.4,0.1l-0.2-0.2c-0.3-0.4-0.4-0.9,0-1.2
	c1.2-1.2,2.4-2.4,3.5-3.5c0.4-0.4,0.4-1.1,0-1.5c-1.2-1.2-2.4-2.4-3.5-3.5c-0.4-0.3-0.3-0.8,0-1.2l0.2-0.2
	C362.7,206.5,363.3,206.6,363.7,207L363.7,207z"/>
<path class="st0" d="M363.7,207l4.8,4.8c0.4,0.4,0.4,1.1,0,1.5l-4.8,4.8c-0.4,0.5-1,0.5-1.4,0.1l-0.2-0.2c-0.3-0.4-0.4-0.9,0-1.2
	c1.2-1.2,2.4-2.4,3.5-3.5c0.4-0.4,0.4-1.1,0-1.5c-1.2-1.2-2.4-2.4-3.5-3.5c-0.4-0.3-0.3-0.8,0-1.2l0.2-0.2
	C362.7,206.5,363.3,206.6,363.7,207L363.7,207z"/>
<path class="st1" d="M19.7,6.4l16.1,16.1c1.4,1.3,1.4,3.6,0,5l-16.1,16c-1.4,1.5-3.4,1.8-4.9,0.4l-0.7-0.6c-1.1-1.3-1.3-2.9-0.1-4
	c3.9-3.9,7.9-7.9,11.8-11.9c1.4-1.3,1.4-3.6,0-4.9c-3.9-4-7.9-8-11.8-11.9c-1.2-1.1-1-2.7,0.1-4l0.7-0.6C16.2,4.6,18.2,4.9,19.7,6.4
	L19.7,6.4z"/>
</svg>
