<?xml version="1.0" encoding="utf-8"?>
<!-- Generator: Adobe Illustrator 21.0.2, SVG Export Plug-In . SVG Version: 6.00 Build 0)  -->
<svg version="1.1" xmlns="http://www.w3.org/2000/svg" xmlns:xlink="http://www.w3.org/1999/xlink" x="0px" y="0px"
	 viewBox="0 0 265 150" style="enable-background:new 0 0 265 150;" xml:space="preserve">
<style type="text/css">
	.st0{display:none;}
	.st1{display:inline;fill:#0077D4;}
	.st2{display:inline;}
	.st3{fill:#FFFFFF;stroke:#FFFFFF;stroke-miterlimit:10;}
	.st4{fill:#FFFFFF;}
</style>
<g id="Layer_2" class="st0">
	<rect class="st1" width="265" height="150"/>
	<rect x="83.8" y="-45.4" style="display:inline;fill:none;" width="32.2" height="15.4"/>
	<text transform="matrix(1 0 0 1 88.4805 -36.9946)" class="st2" style="font-family:'Playlist-Script'; font-size:12px;">Boba</text>
	<g class="st2">
		<path class="st3" d="M169.1-37.3c-3.7-2.6-7.3-5.3-10.7-8.2c-1.7-1.4-3.4-2.9-5.2-4.3c-1.7-1.4-3.5-2.8-5.3-4.2l-1.4-1.1l0,1.8
			c0,2.1,0,4.1,0,6.2c0,2.1,0.1,4.1,0.2,6.2c0.1,2.1,0.2,4.1,0.3,6.2c0.1,2.1,0.3,4.1,0.5,6.2l0.2,0c0.2-2.1,0.3-4.1,0.4-6.2
			c0.1-2.1,0.2-4.1,0.2-6.2c0.1-2.1,0.1-4.1,0.1-6.2c0-1.5,0-3-0.1-4.5c1.3,1,2.7,2,4,2.9c1.8,1.3,3.7,2.6,5.5,3.9
			c3.5,2.5,7,5.1,10.3,7.9c-1.7,1.1-3.4,2.3-5.1,3.4c-1.8,1.3-3.6,2.6-5.3,4c-1.8,1.4-3.5,2.8-5.2,4.2c-1.7,1.4-3.4,2.9-5.1,4.4
			l0.1,0.1c1.9-1.2,3.8-2.4,5.6-3.6c1.8-1.3,3.7-2.5,5.5-3.8c1.8-1.3,3.6-2.6,5.3-4c1.7-1.4,3.4-2.8,5.2-4.2l0.5-0.4L169.1-37.3z"/>
		<path class="st3" d="M164-16c-2.9,1.1-6,1.6-9.1,1.5c-6.1-0.2-12-2.7-16.4-7c-4.4-4.2-7.2-10.2-7.2-16.4c0-3.1,0.6-6.2,1.8-9
			c1.2-2.9,3-5.4,5.3-7.5c2.2-2.1,4.9-3.8,7.7-4.9c2.8-1.1,5.9-1.7,8.9-1.6c6.1,0,12,2.6,16.3,6.8c4.3,4.2,6.8,10.2,7.1,16.3
			c0.1,3.1-0.4,6.2-1.5,9.1c-0.5,1.4-1.2,2.8-2,4l0.2,0.2c0.9-1.3,1.6-2.6,2.3-4c1.3-2.9,2.1-6,2.2-9.3c0.1-3.2-0.4-6.5-1.6-9.5
			c-1.2-3-3-5.8-5.3-8.1c-2.3-2.3-5.1-4.2-8.1-5.4c-3-1.2-6.3-1.8-9.5-1.8c-3.2,0-6.5,0.7-9.4,2c-3,1.3-5.6,3.2-7.8,5.5
			c-4.4,4.6-6.9,10.9-7,17.3c0,3.2,0.5,6.4,1.7,9.3c1.1,3,2.9,5.8,5.1,8.1c2.2,2.3,5,4.2,8,5.4c3,1.2,6.3,1.8,9.5,1.7
			c3.2-0.1,6.4-0.9,9.2-2.2c0.8-0.4,1.5-0.7,2.3-1.2l-0.2-0.2C165.5-16.6,164.8-16.2,164-16z"/>
	</g>
	<rect x="3.1" y="174.5" style="display:inline;fill:none;" width="263.8" height="18.5"/>
	
		<text transform="matrix(1 0 0 1 15.8253 186.6904)" style="display:inline;fill:#FFFFFF; font-family:'Montserrat-Medium'; font-size:16.4234px; letter-spacing:1;">YOUTUBE FIRST SEARCH</text>
</g>
<g id="Layer_1">
	<g>
		<g>
			<path class="st3" d="M78.9,91.4c0.9,4.6,0,9.8-1.4,14.2c-5,15.4-19.2,26.3-33.6,32.7c-6,2.7-12.8,5.1-19.3,6.4
				c-4.1,0.8-8,1-11.9,0.3c-2.1-0.3-7.7-0.8-9-2.6c-1.3-1.6,0.1-1.4,1.7-1.7c3.8-0.7,7.5-1.2,11-2.4c8.4-2.5,16.3-6.3,23.7-10.7
				c6.9-4.2,13.5-9,18.8-15c2.5-2.9,4.8-6,6.4-9.4c0.8-1.7,2.4-6.9,1.6-7.7c-0.3-0.1-0.8-2.6-0.8-4.1c0.1,0.9,0.7,1.8,0.8,2.5
				c-0.1-1.4-0.4-2.9-1-4.3V90c-0.4-0.7-2-2.5-2.1-2.5c-1.2-1.2-2.6-1.7-4.2-2c-3.3-0.4-5.4,1.3-8.2,2.1c-3.4,0.9-12.9-5.2-9.2-8.2
				c1.7-1.3,4.4-2,6.4-3.1c3.3-2.4,6.4-4.8,9.3-7.7c3.1-3,5.9-6.4,8.5-9.9c0.7-0.9,4.8-8.1,5.5-8c0,0-1,2.4-1,2.5
				c1.4-2.7,2.9-5.5,3.9-8.4v-0.1l0.1-0.1l0.1-0.4c1.7-3.9,3.4-11.9-0.1-12.8c-2.4-0.7-5.1,2.7-6.5,4.2
				c-7.5,7.3-13.9,16.1-19.5,24.8c-3.3,5-6.3,9.9-9.3,15c-1.8,3-4.3,5.5-5.6,8.6c-4.1,9.5-8.4,18.7-11.5,28.6
				c-1.6,5.1-2.6,10.2-3.5,15.4l-0.4-0.8c-3.7,3.9-9,1.2-10.7-3c-2-4.3-0.9-10.6-0.8-15.2c0.3-5.5,0.5-11.1,1.8-16.5
				c0.5-2.2,1.3-4.2,2.1-6.3c0.1-0.5,0.5-4.6,0.9-4.7c0,0.1,0,0.3,0.1,0.4c0-0.3,0.1-0.5,0.1-0.9c-0.5,1.3-0.1-2.1,0-2.2
				c0.3-1.4,0.8-2.9,1.2-4.2c0.8-2.6,1.4-5,1.8-7.6c0.3-0.9,3.5-12.5,4.8-12.3c0.3,0.1-0.3,0.9-0.1,1l0.9-2.9
				c-0.4-0.1,5.9-14,6.4-15.2c2.4-4.3,4.1-8.6,7.8-11.8c2.4-1.8,5.2-7.5,9.5-5.9c2,0.8,3.9,3.7,4.1,5.8c0,1.6-0.8,1.8-1.6,2.7
				c0.1-0.1,0.4-0.3,0.7-0.3c0.3,0.1-3.1,4.6-3.5,4.4c-0.1,0,0.4-0.9,0.8-1.6c-4.7,6.4-8.4,13.5-11.5,20.8
				c1.3-2.7,6.7-13.9,7.6-14.2c-0.7,0.4-6.8,13.7-7.5,14.9c-2.2,5.2-4.2,10.5-5.8,15.9c-1.4,5.2-2.5,10.5-3.9,15.7
				c-1.2,4.2-2.9,8.9-3.5,13.1c0.1-0.3,0.3-0.5,0.5-0.8c0.1-0.1-0.5,6.1-0.5,6.5l-0.5,5c5.6-19.1,15-37.1,26.1-53.5
				c-4.2,6-8.1,12.3-11.8,18.7c-1.7,3.3-3.4,6.5-5,9.8c-1.2,2.4-3.7,6.1-4.1,8.5c0.3-2.2,2.1-4.8,3-6.8c1-2.5,2.2-4.8,3.5-7.2
				c2.2-4.3,4.6-8.6,7.1-12.8c5.5-8.8,11.5-17.4,18-25.4c3.1-3.9,6.5-7.7,10.1-11.2c2.7-2.6,6.5-6.8,10.5-7.5
				c7.3-1.2,11.9,6.4,12.5,12.7c2.4,18.8-14,38.2-30.5,45.4C68,78.1,76.9,82.2,78.9,91.4z M14.2,91.8c0.1-0.8,0.1-1.6,0.1-2.2
				c-0.7,1.3-1.6,2.7-2,3.9c-0.8,2.7-1.2,6.7-0.9,9.5c-0.1-2,0.3-4.8,1-6.7C13.1,95,13.9,93.5,14.2,91.8z M31.2,57.1
				c-0.1,0.3-0.3,0.5-0.3,0.8L31.2,57.1z M33.3,52.1c-0.1,0.1-0.3,0.4-0.3,0.5L33.3,52.1z M67.6,103.7l-0.7,1.6
				c-2.2,4.6-4.7,8.1-8,11.9l-4.4,4.7c1.6-1.2,3.5-2,5.4-3.5c2-1.7,4.2-4.3,5.1-6.8C65.9,109.5,67.4,105.9,67.6,103.7z M55.1,41.9
				L56,41L55.1,41.9z M76.3,63.2c1.2-1.3,2.2-2.6,3.4-3.8c3.3-3.7,4.8-7.2,6.1-11.5c-1.3,2.9-3.3,5.8-4.6,8
				C79.8,58.5,78.1,60.8,76.3,63.2z"/>
			<path class="st3" d="M134.3,98.5c-0.3,0-2,0.5-1.8,0.4c-1.3,0.5-1,0.4-2,1.6c-1,1.6-2,3.3-2.9,4.8c-0.5,0.5-5.2,7.5-6.1,7.1
				c0,0,1-1.3,0.9-1.4l-3.8,4.4c0.4-0.4,0.7-0.5,0.7-0.4c-0.8,2.2-5.1,4.8-7.1,6.3c-2.1,1.6-4.7,3-7.5,3.4c-2.6,0.3-5.5-0.3-8-1.4
				c-7.7-3.8-12.3-14.2-8.1-22.2c2.2-4.2,3.8-8.9,6.9-13.1c1.8-2.2,3.8-4.4,6.3-6c1-0.8,2.2-1.4,3.5-2c0.9-0.5,2.9-0.7,3.5-1.2
				c0.8-0.5,1.6-3.9,2.1-5c0.5-1,1.2-2.1,1.8-3c1.8-2.6,4.1-5.2,6.8-6.8c4.4-2.5,8.9,0,12.2,3.3c0,0,2.2,1.4,2.1,2.2l-0.5-0.5l0.5,1
				l0.1,0.1c-0.4-1,1.2,0.9,1.2,0.9c0.7,1,1,2.2,1.3,3.4c0.4,1.8,0.3,3.8,0,5.6c-0.5,4.8-2,9.8-3.4,14.5c3.9-0.7,7.8-1.6,11.6-2.4
				c0.9-0.3,1.8-0.9,2.5,0c0.1,0.3,0,0.1,0,0.1C151,97.2,135.8,98.2,134.3,98.5z M122,98.9c-5.8-0.8-12.8-3.3-14.3-9.8
				c-0.9,1-2.7,4.2-4.7,8.1l0.8-1.2c-0.3,1.3-12.8,24.3-2,22.7h0.1C111.2,117.1,118.2,106.5,122,98.9z M128.3,69.5
				c-2.6-4.1-7.5,1.8-9.4,4.4c-0.1,0-0.1,0.1-0.1,0.1l-0.1,0.3v-0.1c-0.1,0.3-0.3,0.4-0.1,0.4c-0.7,0.9-1.4,1.7-2.2,3.1
				c0.1-0.1,1.6-2.5,1.7-2.1c0.4,0.8-2.1,5-2.5,5.8c-0.8,2.1-1.4,4.2-1.7,6.4c-0.3,2.2-0.5,4.7,1.3,6.3c1,0.9,2.7,1.2,4.2,1.3
				c0.8,0.1,2.5,0.4,3.3,0.1c1.3-0.3,0.9,0.1,1.6-1.2c2-3.3,2.7-8.1,3.7-11.8C128.4,79.3,130.3,72.9,128.3,69.5z M118.9,73.9
				l-0.1,0.1C118.8,74,118.9,74,118.9,73.9z"/>
			<path class="st3" d="M203.9,95.6l-0.8,0.4c-0.3-0.1-0.5-0.1-0.7,0.1c0.4,0.4,0.4,0.7,0.1,1c-1.6,2-4.4,2.5-6.1,4.2
				c-0.9,0.9-1,1.4-2.1,2.5c-0.4,0.4-1,0.4-1.4,0.7c-1,0.7-2.5,1.8-3.3,2.7c-2.2,2.6-4.8,5.4-6.9,8.5c-3.8,5.5-14.6,19.1-21.7,10.5
				c-3.9-4.8,2-6,4.6-8.6c2.1-2.1,3.8-4.6,6-6.7c0.5-0.4,3-3.7,3.4-4.3l0.4-0.7c-0.8,0.9,0-1.2,0-1.3c0.3-1,1.2-2.2,1.7-3.3
				c0.9-1.7,1.8-3.5,2.1-5.5c0.1-1.3,0.4-4.1-1.3-4.4c-0.5,0-5.2,1.7-5.2,1.7c-0.1-0.1,0.7-0.5,0.5-0.8c-0.9,0.7-1.6,1.2-2.4,2
				c0.1-0.1,0.3-0.1,0.4-0.1c-1,0.5-9.5,11.8-10.2,12.8c-1.6,2.6-2.7,5.6-4.7,7.8c-0.4,0.3-0.7,0.4-0.9,0.3
				c-0.5,0.4-0.7,0.9-0.5,1.6c-0.5,1-1,2.1-1.4,3.1c-1.2,2.4-1.7,5.9-3,8c-1.6,2.6-4.6,1.8-6.8,0.3c-1.2-0.8-2.1-2-2.7-3.1
				c0,0-0.8-2-0.7-2c-0.3-0.5-0.5-0.9-0.7-1.6c0.1,0.8,0.1,1.3,0.1,1.2c-2.4-0.9-1.2-10.2-1-11.9c0.5-6.9,1.8-13.7,3.5-20.5
				c2.6-11.5,6.5-22.9,11-33.9c3.9-9.5,7.8-19.2,12.9-28.2c2.7-5.2,5.9-10.3,9.5-14.9c3.1-3.8,7.6-8.8,13.1-8.6
				c10.6,0.5,10.6,15.4,9,22.9c0,0,0.1,2.7-0.5,3.3c0.1-0.1,0.4-2.6,0.4-2.6l-0.8,3.1c0.1-0.1,0.3-0.1,0.4,0
				c0.4,1.8-1.4,5.1-2.1,6.7c-1,2.2-2.1,4.3-3.4,6.4c-2,3.7-4.3,7.2-6.4,10.9c-2.4,4.1-5.4,7.6-8.5,10.8c-0.7,0.8-8,8.5-8.9,7.8
				c0,0,1.3-1.3,1.3-1.4c-1.7,1.4-3.4,3-5.2,4.4c0.5-0.3,0.9-0.5,0.9-0.5c-1.4,2.4-5.5,2.6-6.8,5c-1.7,2.9-2.1,7.7-2.7,11
				c-1.6,6.9-2.9,14-3.9,21l0.3-0.7l-0.5,2.1c2.1-4.2,4.8-8.1,7.7-11.8c-1.3,1.4-2.9,3.1-4.3,5c2.6-3.8,5.5-7.5,8.6-10.8
				c3.7-3.9,8-8.9,13.1-11.2c1.8-0.8,3.7-1.3,5.6-0.7c5.1,1.6,5.8,6.9,6,11.1c0-0.4,0-0.8,0.3-1.2c0.4-0.3,0.4,6.8,0.3,7.5
				c3.7-2.4,7.2-4.6,10.6-7.3c1.6-1.2,3.9-4.7,5.5-2.5h0.1v0.1C205.4,94.2,204.5,94.7,203.9,95.6z M154.6,107.9l-2.7,4.6
				C152.5,110.9,153.5,109.3,154.6,107.9z M152.6,61c3.4-9,7.3-18,12.3-26.5c3.3-5.6,6.4-11.1,10.2-16.3c2.7-3.8,5.9-7.8,10.5-9.4
				c-4.7,1.6-8.5,5.8-11.1,9.3c-4.1,5.2-7.2,10.6-10.2,16.3C159.7,42.9,155.9,52,152.6,61z M161.1,69.6l0.7-2.4l-1.7,5.4v0.1
				c-0.1,0.1-0.1,0.3-0.1,0.4c0,0.3-0.1,0.4-0.1,0.5l-0.1,0.3v0.3C160.5,73.5,160.9,70.6,161.1,69.6z M159.8,73.8l-0.1,0.1v0.3
				C159.7,74,159.8,73.9,159.8,73.8z M188.6,10.9c0.4-0.3,1.3-0.5,1.4-0.3c-0.3-0.4-5.4,5.4-6.7,6.9l1.7-3.1c-3.4,4.3-5.8,9.2-8,14
				c0.3-0.4,0.5-0.7,0.8-0.8c-1,0.9-8.6,20.8-9.4,22.6c-3,7.7-5.8,15.6-8.1,23.4c5.9-4.7,11.5-9.7,16.2-15.6
				c3.7-4.6,7.5-9.7,10.8-14.1c1.7-2.2,2.7-6.4,3.7-9.2c1.3-3.5,2.2-7.3,2.5-11.1c0.1-2.4,0.7-13.3-3.5-13.3
				C189.5,10.4,189,10.5,188.6,10.9z M162.6,98.4c0,0,0.1,0,0.1-0.1L162.6,98.4z M180.6,95.6c-0.9,4.2-3.9,9.5-5,11
				c-2.2,3.1-4.4,6.1-6.8,9.2c-1.7,2-3,3.9-4.7,5c3.3-1.8,6.5-5.6,8.8-8.6C176,107.2,179.7,101.5,180.6,95.6z M172,40.2
				c-2.2,5.4-4.3,10.9-6.4,16.3L172,40.2z"/>
			<path class="st3" d="M258.2,101.9c-1.7,3.9-3.7,7.5-5.8,11c-2.5,3.9-5,7.7-7.8,11.1c-2.4,3-5.6,6.8-9.5,7.5
				c-4.4,0.8-8-2.9-9.4-6.8c-3.1-7.7-0.9-15.8,1.4-23.3c0,0,0-1.2,0.1-2.1c-1.3,2-3.1,4.3-4.3,6.1c-1.6,2.5-2.7,5-4.4,7.3
				c-0.8,1.2-11.5,14.1-12.9,11.9c0,0,1.6-0.7,1.4-0.9c-1.6,1-3.7,1.3-5.5,0.8c0.4,0.3,0.7,0.4,0.5,0.4c-3,0.4-5.4-4.3-6-6.4
				c-1-3.7-0.8-7.7-0.1-11.4c1.4-7.6,4.6-15.8,9-22.4c1.2-1.6,2.4-3.4,4.1-4.6c1-0.9,2-1,3.1-1.8c2-1.7,3.7-3.1,6.5-3.1
				c6.4,0,9,7.3,10.3,12.3c3.1-4.1,8.8-9.4,13.6-3.5c2.6,3.1,0.9,5.5-0.5,8.4c-2.5,4.6-4.4,10.2-5.5,14.9c0.1-0.4,0.5-2.4,1-2.5
				c1-0.3-8.4,29.3,5.1,12.7c4.1-5.1,7.6-10.5,11.1-15.8c1.6-2.5,3.1-5.1,4.8-7.6c0.8-1,3.1-3.5,3.3-0.7
				C262.2,96.4,259.3,99.4,258.2,101.9z M225,92.2c0-1-2.6-8.2-2-8.8c0.1-0.1,1.3,3.7,1.4,3.9c-0.4-1.6-0.9-6.4-3.3-6.4
				c-4.3,0-7.6,8-9,11c-2.6,5.9-5,12.2-6,18.6c0.4-2,8-25.6,10.3-25.5c-1.8,0.4-8.8,20.5-9.2,22.4c-0.3,1-2.4,7.8-0.4,8.5
				c1.3,0.4,4.4-3.7,5.1-4.6c2.5-3,4.8-6.1,7.1-9.4l3.4-4.8c0.5-0.9,1.2-1.8,1.8-2.7C225,93.3,225,93.3,225,92.2z M225.4,91.3v1.3
				C225.8,92.2,225.8,91.8,225.4,91.3z M228.6,97.6l-0.7,0.9c-0.1,0.4-0.5,2.2-0.5,2.2L228.6,97.6z"/>
		</g>
	</g>
</g>
</svg>
