<?xml version="1.0" encoding="utf-8"?>
<!-- Generator: Adobe Illustrator 21.0.2, SVG Export Plug-In . SVG Version: 6.00 Build 0)  -->
<svg version="1.1" id="Layer_1" xmlns="http://www.w3.org/2000/svg" xmlns:xlink="http://www.w3.org/1999/xlink" x="0px" y="0px"
	 viewBox="0 0 50 50" style="enable-background:new 0 0 50 50;" xml:space="preserve">
<style type="text/css">
	.st0{fill:#FFFFFF;}
</style>
<g id="Layer_6">
	<path class="st0" d="M23,8.2c-6.1,0-11.1,5-11.1,11.1s5,11.1,11.1,11.1s11.1-5,11.1-11.1C34.1,13.2,29.2,8.2,23,8.2z M23,27.4
		c-4.5,0-8.1-3.6-8.1-8.1c0.1-4.5,3.7-8.1,8.1-8.1s8.1,3.6,8.1,8.1S27.5,27.4,23,27.4z"/>
	<g>
		<path class="st0" d="M37.7,39.1c0.5,0.8,0.3,1.9-0.4,2.4c-0.7,0.5-1.8,0.3-2.3-0.5L27.1,29c-0.5-0.8-0.3-1.9,0.4-2.4
			s1.8-0.3,2.3,0.5L37.7,39.1z"/>
	</g>
</g>
</svg>
